<?xml version="1.0" encoding="UTF-8" standalone="no"?>
<!-- Created with Inkscape (http://www.inkscape.org/) -->

<svg
   xmlns:dc="http://purl.org/dc/elements/1.1/"
   xmlns:cc="http://creativecommons.org/ns#"
   xmlns:rdf="http://www.w3.org/1999/02/22-rdf-syntax-ns#"
   xmlns:svg="http://www.w3.org/2000/svg"
   xmlns="http://www.w3.org/2000/svg"
   xmlns:sodipodi="http://sodipodi.sourceforge.net/DTD/sodipodi-0.dtd"
   xmlns:inkscape="http://www.inkscape.org/namespaces/inkscape"
   width="210mm"
   height="210mm"
   viewBox="0 0 210 210"
   version="1.1"
   id="svg8"
   inkscape:version="0.92.4 (5da689c313, 2019-01-14)"
   sodipodi:docname="ico_official_inkscape.svg">
  <defs
     id="defs2">
    <inkscape:perspective
       sodipodi:type="inkscape:persp3d"
       inkscape:vp_x="0 : 105 : 1"
       inkscape:vp_y="0 : 1000 : 0"
       inkscape:vp_z="210 : 105 : 1"
       inkscape:persp3d-origin="105 : 70.000002 : 1"
       id="perspective18" />
  </defs>
  <sodipodi:namedview
     id="base"
     pagecolor="#ffffff"
     bordercolor="#fb6666"
     borderopacity="1"
     inkscape:pageopacity="0.0"
     inkscape:pageshadow="2"
     inkscape:zoom="0.35"
     inkscape:cx="337.81338"
     inkscape:cy="522.3917"
     inkscape:document-units="mm"
     inkscape:current-layer="g5140"
     showgrid="false"
     inkscape:window-width="1280"
     inkscape:window-height="737"
     inkscape:window-x="-8"
     inkscape:window-y="-8"
     inkscape:window-maximized="1" />
  <metadata
     id="metadata5">
    <rdf:RDF>
      <cc:Work
         rdf:about="">
        <dc:format>image/svg+xml</dc:format>
        <dc:type
           rdf:resource="http://purl.org/dc/dcmitype/StillImage" />
        <dc:title></dc:title>
      </cc:Work>
    </rdf:RDF>
  </metadata>
  <g
     inkscape:label="Layer 1"
     inkscape:groupmode="layer"
     id="layer1"
     transform="translate(0,-87)">
    <g
       id="g5140"
       transform="translate(124.35873,143.31546)">
      <g
         id="g5171"
         transform="matrix(0.78159886,0,0,0.78159886,149.43613,157.26585)">
        <path
           style="fill:#000000;stroke-width:1.06187081"
           d="m -224.79443,-13.598761 c -4.48973,-12.529798 -13.91983,-23.865765 -28.48042,-20.301563 -13.06322,-2.701784 -7.60676,-14.00133 0.10122,-19.092957 3.97047,-18.043942 -20.7481,-20.035691 -32.67458,-24.661112 -8.40346,-3.716741 -24.12692,-5.823204 -26.71786,-13.56221 5.85532,-7.609081 33.04409,-11.900677 17.90196,-23.902117 -15.08447,-7.53744 -32.08112,-10.22764 -47.76371,-15.86251 -12.9871,-10.99874 3.67599,-25.13121 11.74935,-33.25981 33.21019,-32.74089 64.84472,-67.17161 99.96949,-97.90825 14.89311,-10.19426 32.32867,1.75357 41.90372,13.61524 33.74093,32.3228 66.58267,65.62024 98.542269,99.68735 10.129791,12.3653 2.394511,32.27331 -13.188439,34.87822 -18.01649,8.43673 -38.1853,10.40879 -56.53103,17.929118 -17.03061,14.477218 21.65478,20.532606 13.94645,32.623306 -10.39966,11.946416 -27.80688,13.070287 -39.93738,22.026255 -9.4295,6.917417 3.47139,15.880353 3.20362,18.706238 -10.97482,9.818333 -27.99389,12.9433243 -42.02466,9.084802 z m 10.42997,-79.244307 c -2.8158,-12.122862 -30.67783,-7.873442 -44.63239,-14.385822 -11.4326,9.934353 15.25405,11.794058 22.63444,15.584486 7.10452,1.775515 24.81375,10.924197 21.99795,-1.198664 z m -17.88706,-112.999002 c 0.52244,11.03025 10.05458,29.66283 20.3735,14.07726 8.16688,-10.04942 24.54575,-0.48162 31.24988,-5.64043 -0.20889,-8.8439 5.29838,-19.88226 13.9143,-9.53888 5.82326,6.03436 22.73828,8.73341 10.9637,-2.15532 -18.67004,-15.76909 -42.37312,-46.78631 -57.38394,-46.27628 -15.01082,0.51003 -61.34405,41.00832 -67.71807,63.77618 -6.37403,22.76786 37.78378,-13.34502 48.60063,-14.24253 z m 94.16414,164.480339 c -10.91272,-14.251991 21.98033,-5.863947 6.19999,1.763162 -2.17302,0.3621 -4.62638,-0.106528 -6.19999,-1.763162 z m -152.80851,-1.32879 c -10.32913,-15.258369 31.0354,-17.003658 14.73587,-3.148146 -4.13918,2.985744 -9.69967,5.34976 -14.73587,3.148146 z m 169.14219,-20.74188 c -16.08257,-3.844371 7.6245,-13.933349 14.39672,-10.40047 12.762118,-0.513244 8.775996,16.745776 -3.1305,12.013116 -3.80004,-0.155424 -7.54292,-0.887382 -11.26622,-1.612646 z"
           id="path5173"
           inkscape:connector-curvature="0"
           sodipodi:nodetypes="ccccccccccccccccczcczccccczzccccccccccc" />
      </g>
    </g>
  </g>
</svg>
