<?xml version="1.0" encoding="UTF-8" standalone="no"?>
<!-- Created with Inkscape (http://www.inkscape.org/) -->

<svg
   xmlns:dc="http://purl.org/dc/elements/1.1/"
   xmlns:cc="http://creativecommons.org/ns#"
   xmlns:rdf="http://www.w3.org/1999/02/22-rdf-syntax-ns#"
   xmlns:svg="http://www.w3.org/2000/svg"
   xmlns="http://www.w3.org/2000/svg"
   xmlns:sodipodi="http://sodipodi.sourceforge.net/DTD/sodipodi-0.dtd"
   xmlns:inkscape="http://www.inkscape.org/namespaces/inkscape"
   width="210mm"
   height="210mm"
   viewBox="0 0 210 210"
   version="1.1"
   id="svg8"
   inkscape:version="0.92.4 (5da689c313, 2019-01-14)"
   sodipodi:docname="ico_menu_bars_1.svg">
  <defs
     id="defs2">
    <inkscape:perspective
       sodipodi:type="inkscape:persp3d"
       inkscape:vp_x="0 : 105 : 1"
       inkscape:vp_y="0 : 1000 : 0"
       inkscape:vp_z="210 : 105 : 1"
       inkscape:persp3d-origin="105 : 70.000002 : 1"
       id="perspective18" />
  </defs>
  <sodipodi:namedview
     id="base"
     pagecolor="#ffffff"
     bordercolor="#fb6666"
     borderopacity="1"
     inkscape:pageopacity="0.0"
     inkscape:pageshadow="2"
     inkscape:zoom="0.49497475"
     inkscape:cx="370.68931"
     inkscape:cy="398.16846"
     inkscape:document-units="mm"
     inkscape:current-layer="layer1"
     showgrid="false"
     inkscape:window-width="1280"
     inkscape:window-height="737"
     inkscape:window-x="-8"
     inkscape:window-y="-8"
     inkscape:window-maximized="1" />
  <metadata
     id="metadata5">
    <rdf:RDF>
      <cc:Work
         rdf:about="">
        <dc:format>image/svg+xml</dc:format>
        <dc:type
           rdf:resource="http://purl.org/dc/dcmitype/StillImage" />
        <dc:title></dc:title>
      </cc:Work>
    </rdf:RDF>
  </metadata>
  <g
     inkscape:label="Layer 1"
     inkscape:groupmode="layer"
     id="layer1"
     transform="translate(0,-87)">
    <path
       style="stroke-width:1.37847865"
       d="m 131.29191,94.292578 a 2098.2866,26.705893 0 0 0 -114.186728,0.05684 v 53.288742 a 2098.2866,26.705893 0 0 0 176.398078,-0.0139 V 94.33857 a 2098.2866,26.705893 0 0 0 -62.21135,-0.04599 z m 0,71.753242 a 2098.2868,26.705896 0 0 0 -114.186728,0.0568 v 53.28874 a 2098.2868,26.705896 0 0 0 176.398078,-0.0139 v -53.28564 a 2098.2868,26.705896 0 0 0 -62.21135,-0.046 z m 0,71.64421 a 2098.2868,26.705896 0 0 0 -114.186728,0.0568 v 53.28873 a 2098.2868,26.705896 0 0 0 176.398078,-0.0139 v -53.28563 a 2098.2868,26.705896 0 0 0 -62.21135,-0.046 z"
       id="path34"
       inkscape:connector-curvature="0" />
    <path
       inkscape:connector-curvature="0"
       id="path106"
       d="m 131.29191,94.292578 a 2098.2866,26.705893 0 0 0 -114.186728,0.05684 v 53.288742 a 2098.2866,26.705893 0 0 0 176.398078,-0.0139 V 94.33857 a 2098.2866,26.705893 0 0 0 -62.21135,-0.04599 z m 0,71.753242 a 2098.2868,26.705896 0 0 0 -114.186728,0.0568 v 53.28874 a 2098.2868,26.705896 0 0 0 176.398078,-0.0139 v -53.28564 a 2098.2868,26.705896 0 0 0 -62.21135,-0.046 z m 0,71.64421 a 2098.2868,26.705896 0 0 0 -114.186728,0.0568 v 53.28873 a 2098.2868,26.705896 0 0 0 176.398078,-0.0139 v -53.28563 a 2098.2868,26.705896 0 0 0 -62.21135,-0.046 z"
       style="stroke-width:1.37847865" />
  </g>
</svg>
